<svg width="1280" height="380" viewBox="0 0 1280 380" xmlns="http://www.w3.org/2000/svg">

  <!-- Background -->
  <rect width="1280" height="380" fill="#020410"/>

  <!-- Nebula glow behind cluster -->
  <ellipse cx="338" cy="192" rx="310" ry="225" fill="#050c35" opacity="0.55"/>
  <ellipse cx="325" cy="188" rx="215" ry="162" fill="#080f3c" opacity="0.45"/>
  <ellipse cx="318" cy="192" rx="145" ry="115" fill="#0b1245" opacity="0.35"/>

  <!-- Stars: tiny dim -->
  <g fill="white">
    <circle cx="35"   cy="18"  r="0.6" opacity="0.30"/>
    <circle cx="92"   cy="42"  r="0.6" opacity="0.25"/>
    <circle cx="148"  cy="15"  r="0.6" opacity="0.32"/>
    <circle cx="215"  cy="38"  r="0.6" opacity="0.28"/>
    <circle cx="372"  cy="40"  r="0.6" opacity="0.26"/>
    <circle cx="520"  cy="35"  r="0.6" opacity="0.30"/>
    <circle cx="620"  cy="22"  r="0.6" opacity="0.25"/>
    <circle cx="680"  cy="40"  r="0.6" opacity="0.28"/>
    <circle cx="750"  cy="18"  r="0.6" opacity="0.32"/>
    <circle cx="840"  cy="35"  r="0.6" opacity="0.26"/>
    <circle cx="920"  cy="22"  r="0.6" opacity="0.28"/>
    <circle cx="1010" cy="40"  r="0.6" opacity="0.30"/>
    <circle cx="1100" cy="18"  r="0.6" opacity="0.25"/>
    <circle cx="1185" cy="35"  r="0.6" opacity="0.28"/>
    <circle cx="1255" cy="22"  r="0.6" opacity="0.30"/>
    <circle cx="48"   cy="68"  r="0.6" opacity="0.27"/>
    <circle cx="140"  cy="85"  r="0.6" opacity="0.24"/>
    <circle cx="285"  cy="72"  r="0.6" opacity="0.29"/>
    <circle cx="460"  cy="88"  r="0.6" opacity="0.26"/>
    <circle cx="595"  cy="68"  r="0.6" opacity="0.28"/>
    <circle cx="720"  cy="82"  r="0.6" opacity="0.24"/>
    <circle cx="855"  cy="70"  r="0.6" opacity="0.27"/>
    <circle cx="980"  cy="85"  r="0.6" opacity="0.25"/>
    <circle cx="1090" cy="68"  r="0.6" opacity="0.29"/>
    <circle cx="1215" cy="80"  r="0.6" opacity="0.26"/>
    <circle cx="42"   cy="125" r="0.6" opacity="0.28"/>
    <circle cx="535"  cy="145" r="0.6" opacity="0.26"/>
    <circle cx="840"  cy="142" r="0.6" opacity="0.25"/>
    <circle cx="995"  cy="128" r="0.6" opacity="0.27"/>
    <circle cx="1145" cy="142" r="0.6" opacity="0.24"/>
    <circle cx="55"   cy="290" r="0.6" opacity="0.28"/>
    <circle cx="178"  cy="308" r="0.6" opacity="0.25"/>
    <circle cx="510"  cy="308" r="0.6" opacity="0.27"/>
    <circle cx="680"  cy="290" r="0.6" opacity="0.24"/>
    <circle cx="820"  cy="308" r="0.6" opacity="0.28"/>
    <circle cx="990"  cy="292" r="0.6" opacity="0.25"/>
    <circle cx="1140" cy="308" r="0.6" opacity="0.26"/>
    <circle cx="1255" cy="290" r="0.6" opacity="0.30"/>
  </g>

  <!-- Stars: small medium -->
  <g fill="white">
    <circle cx="65"   cy="28"  r="0.9" opacity="0.42"/>
    <circle cx="185"  cy="18"  r="0.9" opacity="0.45"/>
    <circle cx="490"  cy="20"  r="0.9" opacity="0.40"/>
    <circle cx="655"  cy="30"  r="0.9" opacity="0.44"/>
    <circle cx="790"  cy="18"  r="0.9" opacity="0.42"/>
    <circle cx="950"  cy="30"  r="0.9" opacity="0.40"/>
    <circle cx="1070" cy="20"  r="0.9" opacity="0.44"/>
    <circle cx="1215" cy="30"  r="0.9" opacity="0.42"/>
    <circle cx="88"   cy="105" r="0.9" opacity="0.40"/>
    <circle cx="225"  cy="95"  r="0.9" opacity="0.43"/>
    <circle cx="430"  cy="108" r="0.9" opacity="0.41"/>
    <circle cx="605"  cy="95"  r="0.9" opacity="0.44"/>
    <circle cx="760"  cy="108" r="0.9" opacity="0.40"/>
    <circle cx="905"  cy="98"  r="0.9" opacity="0.42"/>
    <circle cx="1060" cy="108" r="0.9" opacity="0.41"/>
    <circle cx="1200" cy="98"  r="0.9" opacity="0.43"/>
    <circle cx="72"   cy="265" r="0.9" opacity="0.42"/>
    <circle cx="210"  cy="278" r="0.9" opacity="0.40"/>
    <circle cx="560"  cy="278" r="0.9" opacity="0.43"/>
    <circle cx="740"  cy="265" r="0.9" opacity="0.41"/>
    <circle cx="900"  cy="278" r="0.9" opacity="0.44"/>
    <circle cx="1065" cy="265" r="0.9" opacity="0.40"/>
    <circle cx="1210" cy="278" r="0.9" opacity="0.42"/>
  </g>

  <!-- Stars: larger bright -->
  <g fill="white">
    <circle cx="28"   cy="52"  r="1.3" opacity="0.65"/>
    <circle cx="310"  cy="48"  r="1.3" opacity="0.60"/>
    <circle cx="700"  cy="48"  r="1.3" opacity="0.65"/>
    <circle cx="860"  cy="62"  r="1.3" opacity="0.60"/>
    <circle cx="1020" cy="48"  r="1.3" opacity="0.62"/>
    <circle cx="1180" cy="62"  r="1.3" opacity="0.65"/>
    <circle cx="715"  cy="160" r="1.3" opacity="0.60"/>
    <circle cx="930"  cy="168" r="1.3" opacity="0.62"/>
    <circle cx="1120" cy="158" r="1.3" opacity="0.60"/>
    <circle cx="85"   cy="335" r="1.3" opacity="0.65"/>
    <circle cx="450"  cy="345" r="1.3" opacity="0.60"/>
    <circle cx="750"  cy="335" r="1.3" opacity="0.62"/>
    <circle cx="1050" cy="345" r="1.3" opacity="0.60"/>
    <circle cx="1250" cy="335" r="1.3" opacity="0.65"/>
  </g>

  <!-- Edges -->
  <g stroke="rgba(255,255,255,0.07)" stroke-width="0.9" fill="none">
    <!-- project–project -->
    <line x1="315" y1="160" x2="435" y2="200"/>
    <line x1="315" y1="160" x2="208" y2="240"/>
    <line x1="315" y1="160" x2="375" y2="98"/>
    <line x1="435" y1="200" x2="375" y2="98"/>
    <!-- project–component -->
    <line x1="315" y1="160" x2="312" y2="68"/>
    <line x1="315" y1="160" x2="172" y2="120"/>
    <line x1="435" y1="200" x2="480" y2="148"/>
    <line x1="435" y1="200" x2="462" y2="262"/>
    <line x1="208" y1="240" x2="165" y2="280"/>
    <line x1="208" y1="240" x2="102" y2="195"/>
    <line x1="208" y1="240" x2="265" y2="308"/>
    <line x1="375" y1="98"  x2="502" y2="84"/>
    <line x1="375" y1="98"  x2="480" y2="148"/>
    <!-- component–decision -->
    <line x1="172" y1="120" x2="122" y2="155"/>
    <line x1="312" y1="68"  x2="292" y2="32"/>
    <line x1="502" y1="84"  x2="535" y2="52"/>
    <line x1="480" y1="148" x2="548" y2="192"/>
    <line x1="165" y1="280" x2="82"  y2="315"/>
    <line x1="462" y1="262" x2="392" y2="334"/>
    <!-- component–lesson -->
    <line x1="265" y1="308" x2="340" y2="342"/>
    <line x1="462" y1="262" x2="515" y2="304"/>
    <line x1="102" y1="195" x2="78"  y2="242"/>
    <line x1="172" y1="120" x2="142" y2="58"/>
    <line x1="480" y1="148" x2="570" y2="138"/>
  </g>

  <!-- Glow layers for project nodes -->
  <!-- P1 (315,160) -->
  <circle cx="315" cy="160" r="44" fill="#00f5ff" opacity="0.025"/>
  <circle cx="315" cy="160" r="32" fill="#00f5ff" opacity="0.05"/>
  <circle cx="315" cy="160" r="24" fill="#00f5ff" opacity="0.08"/>
  <!-- P2 (435,200) -->
  <circle cx="435" cy="200" r="40" fill="#00f5ff" opacity="0.02"/>
  <circle cx="435" cy="200" r="29" fill="#00f5ff" opacity="0.045"/>
  <circle cx="435" cy="200" r="22" fill="#00f5ff" opacity="0.075"/>
  <!-- P3 (208,240) -->
  <circle cx="208" cy="240" r="40" fill="#00f5ff" opacity="0.02"/>
  <circle cx="208" cy="240" r="29" fill="#00f5ff" opacity="0.045"/>
  <circle cx="208" cy="240" r="22" fill="#00f5ff" opacity="0.075"/>
  <!-- P4 (375,98) -->
  <circle cx="375" cy="98"  r="38" fill="#00f5ff" opacity="0.02"/>
  <circle cx="375" cy="98"  r="27" fill="#00f5ff" opacity="0.04"/>
  <circle cx="375" cy="98"  r="21" fill="#00f5ff" opacity="0.07"/>

  <!-- Glow layers for component nodes -->
  <circle cx="172" cy="120" r="20" fill="#b084ff" opacity="0.04"/>
  <circle cx="172" cy="120" r="14" fill="#b084ff" opacity="0.07"/>
  <circle cx="312" cy="68"  r="20" fill="#b084ff" opacity="0.04"/>
  <circle cx="312" cy="68"  r="14" fill="#b084ff" opacity="0.07"/>
  <circle cx="480" cy="148" r="20" fill="#b084ff" opacity="0.04"/>
  <circle cx="480" cy="148" r="14" fill="#b084ff" opacity="0.07"/>
  <circle cx="462" cy="262" r="18" fill="#b084ff" opacity="0.035"/>
  <circle cx="462" cy="262" r="13" fill="#b084ff" opacity="0.065"/>
  <circle cx="165" cy="280" r="18" fill="#b084ff" opacity="0.035"/>
  <circle cx="165" cy="280" r="13" fill="#b084ff" opacity="0.065"/>
  <circle cx="265" cy="308" r="18" fill="#b084ff" opacity="0.035"/>
  <circle cx="265" cy="308" r="13" fill="#b084ff" opacity="0.065"/>
  <circle cx="502" cy="84"  r="18" fill="#b084ff" opacity="0.035"/>
  <circle cx="502" cy="84"  r="13" fill="#b084ff" opacity="0.065"/>
  <circle cx="102" cy="195" r="18" fill="#b084ff" opacity="0.035"/>
  <circle cx="102" cy="195" r="13" fill="#b084ff" opacity="0.065"/>

  <!-- Project nodes -->
  <circle cx="315" cy="160" r="18" fill="#00f5ff" fill-opacity="0.18" stroke="#00f5ff" stroke-width="1.8"/>
  <circle cx="435" cy="200" r="16" fill="#00f5ff" fill-opacity="0.15" stroke="#00f5ff" stroke-width="1.5"/>
  <circle cx="208" cy="240" r="16" fill="#00f5ff" fill-opacity="0.15" stroke="#00f5ff" stroke-width="1.5"/>
  <circle cx="375" cy="98"  r="15" fill="#00f5ff" fill-opacity="0.14" stroke="#00f5ff" stroke-width="1.4"/>

  <!-- Component nodes -->
  <circle cx="172" cy="120" r="11" fill="#b084ff" fill-opacity="0.18" stroke="#b084ff" stroke-width="1.2"/>
  <circle cx="312" cy="68"  r="11" fill="#b084ff" fill-opacity="0.18" stroke="#b084ff" stroke-width="1.2"/>
  <circle cx="480" cy="148" r="11" fill="#b084ff" fill-opacity="0.18" stroke="#b084ff" stroke-width="1.2"/>
  <circle cx="462" cy="262" r="10" fill="#b084ff" fill-opacity="0.15" stroke="#b084ff" stroke-width="1.1"/>
  <circle cx="165" cy="280" r="10" fill="#b084ff" fill-opacity="0.15" stroke="#b084ff" stroke-width="1.1"/>
  <circle cx="265" cy="308" r="10" fill="#b084ff" fill-opacity="0.15" stroke="#b084ff" stroke-width="1.1"/>
  <circle cx="502" cy="84"  r="10" fill="#b084ff" fill-opacity="0.15" stroke="#b084ff" stroke-width="1.1"/>
  <circle cx="102" cy="195" r="10" fill="#b084ff" fill-opacity="0.15" stroke="#b084ff" stroke-width="1.1"/>

  <!-- Decision nodes -->
  <circle cx="122" cy="155" r="7" fill="#ffb347" fill-opacity="0.22" stroke="#ffb347" stroke-width="1"/>
  <circle cx="292" cy="32"  r="7" fill="#ffb347" fill-opacity="0.22" stroke="#ffb347" stroke-width="1"/>
  <circle cx="535" cy="52"  r="7" fill="#ffb347" fill-opacity="0.22" stroke="#ffb347" stroke-width="1"/>
  <circle cx="548" cy="192" r="7" fill="#ffb347" fill-opacity="0.22" stroke="#ffb347" stroke-width="1"/>
  <circle cx="82"  cy="315" r="7" fill="#ffb347" fill-opacity="0.22" stroke="#ffb347" stroke-width="1"/>
  <circle cx="392" cy="334" r="7" fill="#ffb347" fill-opacity="0.22" stroke="#ffb347" stroke-width="1"/>

  <!-- Lesson nodes -->
  <circle cx="78"  cy="242" r="6" fill="#ff6b6b" fill-opacity="0.22" stroke="#ff6b6b" stroke-width="1"/>
  <circle cx="340" cy="342" r="6" fill="#ff6b6b" fill-opacity="0.22" stroke="#ff6b6b" stroke-width="1"/>
  <circle cx="515" cy="304" r="6" fill="#ff6b6b" fill-opacity="0.22" stroke="#ff6b6b" stroke-width="1"/>
  <circle cx="570" cy="138" r="6" fill="#ff6b6b" fill-opacity="0.22" stroke="#ff6b6b" stroke-width="1"/>
  <circle cx="142" cy="58"  r="6" fill="#ff6b6b" fill-opacity="0.22" stroke="#ff6b6b" stroke-width="1"/>

  <!-- Vertical separator -->
  <line x1="648" y1="48" x2="648" y2="332" stroke="rgba(255,255,255,0.055)" stroke-width="1"/>

  <!-- Right side: main title -->
  <text
    x="685" y="148"
    font-family="'JetBrains Mono', 'Cascadia Code', 'Courier New', Courier, monospace"
    font-size="54"
    font-weight="600"
    fill="#00f5ff"
    letter-spacing="-1"
    opacity="0.92"
  >genesis-architect</text>

  <!-- Tagline -->
  <text
    x="685" y="182"
    font-family="-apple-system, BlinkMacSystemFont, 'Segoe UI', sans-serif"
    font-size="15.5"
    fill="#7888a8"
    letter-spacing="0.01em"
  >A Claude skill that builds, remembers, and improves itself.</text>

  <!-- Divider -->
  <line x1="685" y1="204" x2="785" y2="204" stroke="rgba(255,255,255,0.08)" stroke-width="1"/>

  <!-- Feature lines -->
  <text
    x="685" y="226"
    font-family="-apple-system, BlinkMacSystemFont, 'Segoe UI', sans-serif"
    font-size="13"
    fill="#4a5a7a"
    letter-spacing="0.01em"
  >Persistent memory via Supabase. Galaxy brain map. Security-first</text>
  <text
    x="685" y="244"
    font-family="-apple-system, BlinkMacSystemFont, 'Segoe UI', sans-serif"
    font-size="13"
    fill="#4a5a7a"
    letter-spacing="0.01em"
  >architecture. Modular codegen. Vercel deployment baked in.</text>

  <!-- Tags -->
  <g font-family="-apple-system, BlinkMacSystemFont, 'Segoe UI', sans-serif" font-size="11">
    <!-- Supabase tag -->
    <rect x="685" y="268" width="74" height="22" rx="4" fill="rgba(0,245,255,0.06)" stroke="rgba(0,245,255,0.2)" stroke-width="1"/>
    <text x="722" y="283" text-anchor="middle" fill="#00c8d4">supabase</text>

    <!-- Vercel tag -->
    <rect x="768" y="268" width="56" height="22" rx="4" fill="rgba(176,132,255,0.06)" stroke="rgba(176,132,255,0.2)" stroke-width="1"/>
    <text x="796" y="283" text-anchor="middle" fill="#9a70d4">vercel</text>

    <!-- TypeScript tag -->
    <rect x="833" y="268" width="86" height="22" rx="4" fill="rgba(255,179,71,0.06)" stroke="rgba(255,179,71,0.2)" stroke-width="1"/>
    <text x="876" y="283" text-anchor="middle" fill="#cc9040">typescript</text>

    <!-- Claude skill tag -->
    <rect x="928" y="268" width="90" height="22" rx="4" fill="rgba(255,107,107,0.06)" stroke="rgba(255,107,107,0.2)" stroke-width="1"/>
    <text x="973" y="283" text-anchor="middle" fill="#c05858">claude skill</text>
  </g>

  <!-- Legend -->
  <g font-family="-apple-system, BlinkMacSystemFont, 'Segoe UI', sans-serif" font-size="11" fill="#38455e">
    <circle cx="690" cy="324" r="5" fill="#00f5ff" fill-opacity="0.2" stroke="#00f5ff" stroke-width="1"/>
    <text x="700" y="328">projects</text>
    <circle cx="758" cy="324" r="4" fill="#b084ff" fill-opacity="0.2" stroke="#b084ff" stroke-width="1"/>
    <text x="768" y="328">components</text>
    <circle cx="840" cy="324" r="3.5" fill="#ffb347" fill-opacity="0.2" stroke="#ffb347" stroke-width="1"/>
    <text x="850" y="328">decisions</text>
    <circle cx="912" cy="324" r="3" fill="#ff6b6b" fill-opacity="0.2" stroke="#ff6b6b" stroke-width="1"/>
    <text x="922" y="328">lessons</text>
  </g>

</svg>
